<?xml version="1.0" encoding="UTF-8" standalone="no"?>
<!-- Created with Inkscape (http://www.inkscape.org/) -->

<svg
   width="172.39816mm"
   height="103.07701mm"
   viewBox="0 0 172.39817 103.07701"
   version="1.1"
   id="svg5"
   xml:space="preserve"
   sodipodi:docname="frames.svg"
   inkscape:export-filename="frames.svg"
   inkscape:export-xdpi="96"
   inkscape:export-ydpi="96"
   xmlns:inkscape="http://www.inkscape.org/namespaces/inkscape"
   xmlns:sodipodi="http://sodipodi.sourceforge.net/DTD/sodipodi-0.dtd"
   xmlns="http://www.w3.org/2000/svg"
   xmlns:svg="http://www.w3.org/2000/svg"><sodipodi:namedview
     id="namedview7"
     pagecolor="#ffffff"
     bordercolor="#000000"
     borderopacity="0.25"
     inkscape:showpageshadow="false"
     inkscape:pageopacity="0.0"
     inkscape:pagecheckerboard="0"
     inkscape:deskcolor="#d1d1d1"
     inkscape:document-units="mm"
     showgrid="false"
     showborder="false"
     borderlayer="false"
     shape-rendering="crispEdges"
     showguides="true"><sodipodi:guide
       position="80.349597,57.993963"
       orientation="1,0"
       id="guide3786"
       inkscape:locked="false" /></sodipodi:namedview><defs
     id="defs2"><rect
       x="368.22922"
       y="22.005178"
       width="116.66021"
       height="40.098827"
       id="rect3003" /><linearGradient
       x1="24.714943"
       y1="22.898218"
       x2="151.13554"
       y2="148.33669"
       id="linearGradient-1"
       gradientTransform="scale(0.99888681,1.0011144)"
       gradientUnits="userSpaceOnUse"><stop
         stop-color="#387EB8"
         offset="0%"
         id="stop200" /><stop
         stop-color="#366994"
         offset="100%"
         id="stop202" /></linearGradient><linearGradient
       x1="102.48342"
       y1="103.26588"
       x2="238.25963"
       y2="231.90547"
       id="linearGradient-2"
       gradientTransform="scale(0.99888678,1.0011145)"
       gradientUnits="userSpaceOnUse"><stop
         stop-color="#FFE052"
         offset="0%"
         id="stop205" /><stop
         stop-color="#FFC331"
         offset="100%"
         id="stop207" /></linearGradient></defs><g
     inkscape:label="Layer 1"
     inkscape:groupmode="layer"
     id="layer1"
     transform="translate(-22.175248,-64.614971)"><rect
       style="fill:#00ffff;stroke:#ffffff;stroke-width:0"
       id="rect493"
       width="159.41397"
       height="86.046989"
       x="26.43195"
       y="72.846199"
       inkscape:export-filename="frames.svg"
       inkscape:export-xdpi="96"
       inkscape:export-ydpi="96" /><rect
       style="fill:#00ffff;stroke:#4e4e4e;stroke-width:7.9375;stroke-dasharray:none;stroke-opacity:1"
       id="rect1257"
       width="161.87917"
       height="92.211159"
       x="26.369442"
       y="70.68602" /><rect
       style="fill:none;stroke:#000000;stroke-width:2.64583;stroke-dasharray:none;stroke-opacity:1"
       id="rect1935"
       width="156.16136"
       height="85.078789"
       x="29.596893"
       y="74.747009" /><rect
       style="fill:none;stroke:#000000;stroke-width:2.64141;stroke-dasharray:none;stroke-opacity:1"
       id="rect2145"
       width="169.75676"
       height="100.43561"
       x="23.495953"
       y="65.935677"
       ry="0" /><rect
       style="fill:#ececec;stroke:#000000;stroke-width:0.202;stroke-dasharray:none;stroke-opacity:1"
       id="rect2249"
       width="70.442787"
       height="46.34634"
       x="67.923523"
       y="90.626335" /><rect
       style="fill:#666666;stroke:#000000;stroke-width:0.202;stroke-dasharray:none;stroke-opacity:1"
       id="rect2303"
       width="70.722038"
       height="7.1115022"
       x="67.572083"
       y="90.398842" /><ellipse
       style="fill:#ff0000;stroke:#000000;stroke-width:0.202;stroke-dasharray:none;stroke-opacity:1"
       id="path2617"
       cx="133.21745"
       cy="94.108574"
       rx="3.1291096"
       ry="3.0061111" /><ellipse
       style="fill:#ffc200;fill-opacity:1;stroke:#000000;stroke-width:0.202;stroke-dasharray:none;stroke-opacity:1"
       id="ellipse2725"
       cx="125.77746"
       cy="94.108574"
       rx="3.1291096"
       ry="3.0061111" /><ellipse
       style="fill:#1cff00;fill-opacity:1;stroke:#000000;stroke-width:0.202;stroke-dasharray:none;stroke-opacity:1"
       id="ellipse2727"
       cx="118.57429"
       cy="94.108574"
       rx="3.1291096"
       ry="3.0061111" /><rect
       style="fill:none;fill-opacity:1;stroke:#000000;stroke-width:0.602;stroke-dasharray:none;stroke-opacity:1"
       id="rect2885"
       width="3.0637848"
       height="3.0860388"
       x="124.28718"
       y="92.668587" /><path
       style="fill:none;fill-opacity:1;stroke:#000000;stroke-width:0.602001;stroke-dasharray:none;stroke-opacity:1"
       d="m 131.86959,92.840109 2.67874,2.893084"
       id="path2943" /><path
       style="fill:none;fill-opacity:1;stroke:#000000;stroke-width:0.602001;stroke-dasharray:none;stroke-opacity:1"
       d="m 134.62297,92.718791 -2.6699,2.992372"
       id="path2945" /><path
       style="fill:none;fill-opacity:1;stroke:#000000;stroke-width:0.602001;stroke-dasharray:none;stroke-opacity:1"
       d="m 117.1779,94.673379 3.08304,0.112318"
       id="path2947" /><text
       xml:space="preserve"
       transform="matrix(0.26458333,0,0,0.26458333,-8.1551592,115.61331)"
       id="text3001"
       style="font-size:26.6667px;white-space:pre;shape-inside:url(#rect3003);fill:none;fill-opacity:1;stroke:#000000;stroke-width:2.27528;stroke-dasharray:none;stroke-opacity:1"><tspan
         x="368.22852"
         y="46.269228"
         id="tspan3982">FRAMES</tspan></text><g
       id="g216"
       transform="matrix(0.0789919,0,0,0.0816303,92.726638,99.505891)"
       style="stroke-width:0.999619;stroke-dasharray:none"><path
         d="M 126.91587,0.07227555 C 62.083583,0.07228017 66.132129,28.187465 66.132129,28.187465 l 0.07227,29.127047 h 61.867881 v 8.745341 H 41.630717 c 0,0 -41.4861659,-4.704909 -41.4861659,60.711467 -4.63e-6,65.41635 36.2100509,63.09655 36.2100509,63.09655 h 21.610389 v -30.35573 c 0,0 -1.164855,-36.21005 35.631847,-36.21005 h 61.361942 c 0,0 34.47544,0.5573 34.47544,-33.31903 V 33.969509 c 0,-5e-6 5.23432,-33.89723345 -62.51835,-33.89723345 z M 92.801807,19.65895 c 6.1554,-5e-6 11.130433,4.975035 11.130433,11.130434 1e-5,6.1554 -4.975033,11.130435 -11.130433,11.130435 -6.1554,5e-6 -11.130435,-4.975035 -11.130435,-11.130435 -5e-6,-6.155399 4.975035,-11.130434 11.130435,-11.130434 z"
         fill="url(#linearGradient-1)"
         id="path212"
         style="fill:url(#linearGradient-1);stroke-width:0.999619;stroke-dasharray:none" /><path
         d="m 128.7571,254.12627 c 64.8323,0 60.78374,-28.11519 60.78374,-28.11519 l -0.0723,-29.12705 h -61.86787 v -8.74534 h 86.44156 c 0,0 41.48617,4.7049 41.48617,-60.71148 2e-5,-65.416353 -36.21005,-63.096551 -36.21005,-63.096551 h -21.61039 v 30.355724 c 0,0 1.16487,36.210047 -35.63185,36.210047 h -61.36195 c 0,0 -34.475435,-0.55729 -34.475435,33.31906 v 56.01355 c 0,0 -5.234323,33.89723 62.518355,33.89723 v 0 z m 34.11406,-19.58667 c -6.1554,0 -11.13043,-4.97504 -11.13043,-11.13044 0,-6.1554 4.97503,-11.13043 11.13043,-11.13043 6.1554,0 11.13043,4.97503 11.13043,11.13043 3e-5,6.1554 -4.97503,11.13044 -11.13043,11.13044 z"
         fill="url(#linearGradient-2)"
         id="path214"
         style="fill:url(#linearGradient-2);stroke-width:0.999619;stroke-dasharray:none" /></g></g></svg>
